<?xml version="1.0" encoding="UTF-8"?>
<svg id="Layer_1" data-name="Layer 1" xmlns="http://www.w3.org/2000/svg" viewBox="0 0 205.95 180.12">
  <defs>
    <style>
      .cls-1 {
        fill: #fff;
        stroke-width: 0px;
      }
    </style>
  </defs>
  <path class="cls-1" d="m99.35,52.15c-2.47,8.03-4.88,16.08-7.41,24.1-4.81,15.23-14.31,22.4-30.21,22.55-12.66.12-25.32-.14-37.98.05-2.21.03-4.75,1.02-6.53,2.37-4.81,3.64-10.16,3.83-13.96-.05-3.67-3.74-3.84-10.1-.38-14.09,3.54-4.08,9.39-4.13,14.34-.5,1.6,1.18,3.83,2.07,5.78,2.1,12.82.24,25.65.35,38.48.22,11.89-.12,17.88-4.83,21.51-16.32,2.6-8.23,5.28-16.44,7.75-24.71,1.45-4.87,4.67-7.15,9.55-7.13,5.03.02,8.25,2.95,9.36,7.53,2.64,10.98,4.93,22.05,7.26,33.1,1.97,9.35,3.81,18.74,6.83,28.17,1.78-5.6,3.58-11.2,5.35-16.8,4.37-13.83,10.64-18.43,25.23-18.44,9.33,0,18.66.17,27.98-.07,2.05-.05,4.4-1.08,6.02-2.39,4.52-3.66,10.44-3.58,14.33.62,3.63,3.93,3.54,10.07-.22,14.05-3.62,3.84-9.6,3.76-13.91.18-1.5-1.24-3.64-2.35-5.52-2.39-10.16-.23-20.32-.17-30.48-.07-8.31.08-11.25,2.38-13.72,10.26-1.94,6.18-3.83,12.38-5.86,18.53-1.83,5.53-5.19,8.11-10.09,8.01-4.84-.09-8.4-2.84-9.6-8.53-3.58-17.08-6.82-34.23-10.25-51.33-.61-3.04-1.46-6.03-2.21-9.04-.49,0-.98,0-1.47-.01Z"/>
  <path class="cls-1" d="m167.83,94.55c-5.25,10.37-10.14,20.71-15.64,30.71-7.21,13.11-14.61,26.13-22.51,38.83-4.44,7.13-10.47,13.06-19.2,14.99-13.78,3.04-25.57-.57-34.24-11.81-5.26-6.82-9.95-14.16-14.21-21.66-6.89-12.14-13.2-24.6-19.78-36.95,7.6-2.66,10.89-1.19,14.35,5.09,8.25,15,16.02,30.35,25.43,44.59,10.9,16.5,28.93,16.41,39.43-.35,11.54-18.43,21.55-37.83,31.93-56.97,4.35-8.02,4.13-8.27,14.43-6.49Z"/>
  <path class="cls-1" d="m39.13,79.52c-3.26,0-6.11.38-8.77-.16-1.33-.27-2.77-2.04-3.38-3.46-4.63-10.67-8.93-21.48-13.68-32.09-1.05-2.35-3.11-4.69-5.32-6C2.36,34.47-.44,29.94.06,23.44c.41-5.41,4.43-10.58,9.58-12.24,6.22-2.01,11.24-.3,15.72,4.49,1.7,1.81,4.6,3.3,7.06,3.47,15.98,1.07,28.03,7.44,33.96,23.2,1.98,5.28,4.55,10.33,6.93,15.46,1.64,3.53.19,5.93-2.92,7.28-3.43,1.49-5.16-.69-6.4-3.63-2.25-5.36-4.55-10.7-6.95-15.99-4.08-8.98-10.75-14.49-20.78-15.85-7.53-1.02-9.2-.63-12.95,5.94-.79,1.38-.56,3.84.08,5.46,4.61,11.57,9.45,23.06,14.21,34.57.48,1.17.92,2.36,1.53,3.93Z"/>
  <path class="cls-1" d="m169.39,65.27c1.82-4.63,3.41-8.71,5.03-12.78,2.81-7.1,5.72-14.16,8.44-21.29,1.92-5.04-2.59-11.25-8.05-11.3-11.53-.11-18.67,4.74-23.01,15.54-.86,2.15-1.38,4.71-2.91,6.25-1.43,1.44-4.43,2.89-5.9,2.29-1.56-.64-3.42-4.09-2.95-5.62,4.55-14.54,11.58-26.38,30.68-28.26,4.44-.44,8.09-1.22,10.92-5.49,3.05-4.6,9.86-5.65,15.43-3.61,5.26,1.93,8.79,6.76,8.88,12.65.09,5.91-2.14,10.48-7.61,13.52-2.2,1.22-4.36,3.44-5.35,5.72-3.84,8.82-7.5,17.74-10.61,26.84-1.6,4.66-4.07,6.4-8.73,5.56-.96-.17-1.99-.03-4.26-.03Z"/>
</svg>