<svg xmlns="http://www.w3.org/2000/svg" id="Layer_1" data-name="Layer 1" viewBox="0 0 205.96 180.31" width="205.96" height="180.31"><metadata><rdf:RDF xmlns:rdf="http://www.w3.org/1999/02/22-rdf-syntax-ns#" xmlns:dc="http://purl.org/dc/elements/1.1/"><rdf:Description><dc:creator>RealFaviconGenerator</dc:creator><dc:source>https://realfavicongenerator.net</dc:source></rdf:Description></rdf:RDF></metadata><defs>
    <style>
      .cls-1 {
        stroke-width: 0px;
      }
    </style>
  </defs><path class="cls-1" d="m123.75,109.55c1.78-5.59,3.58-11.18,5.35-16.78,4.37-13.83,10.65-18.44,25.22-18.46,9.33,0,18.66.17,27.98-.07,2.05-.05,4.41-1.07,6.02-2.38,4.52-3.67,10.44-3.6,14.33.59,3.64,3.92,3.56,10.07-.19,14.05-3.62,3.85-9.61,3.79-13.91.21-1.5-1.24-3.64-2.36-5.51-2.4-10.16-.23-20.32-.17-30.48-.07-8.32.08-11.27,2.38-13.74,10.25-1.94,6.18-3.83,12.38-5.86,18.54-1.83,5.55-5.17,8.12-10.07,8.03-4.84-.09-8.42-2.83-9.61-8.51-3.58-17.08-6.82-34.22-10.25-51.33-.61-3.04-1.46-6.04-3.47-9.24-.87,2.52-1.81,5.01-2.6,7.56-1.71,5.55-3.27,11.16-5.02,16.7-4.81,15.24-14.31,22.42-30.19,22.57-12.66.12-25.32-.14-37.98.05-2.21.03-4.75,1.01-6.53,2.36-4.81,3.64-10.16,3.84-13.96-.03-3.68-3.75-3.87-10.08-.41-14.09,3.53-4.09,9.4-4.15,14.34-.52,1.6,1.18,3.82,2.08,5.78,2.11,12.82.24,25.65.35,38.48.23,11.89-.12,17.89-4.82,21.53-16.3,2.66-8.39,5.39-16.75,7.94-25.18,1.36-4.49,4.46-6.53,8.85-6.69,4.69-.17,8.29,2.08,9.46,6.6,2.49,9.64,4.61,19.38,6.68,29.12,2.34,10.98,4.45,22,6.66,33.01.39.02.77.05,1.16.07Z"></path><path class="cls-1" d="m168.17,94.37c-7.83,15.01-15.12,29.55-22.93,43.8-5.19,9.47-10.57,18.93-16.87,27.67-10.32,14.31-24.99,18-40.47,11.12-7.64-3.4-12.81-9.72-16.86-16.58-10.04-16.99-19.49-34.33-29.78-52.61,4.54,0,7.85-.37,11,.18,1.31.23,2.53,2.29,3.36,3.76,8.34,14.95,16.39,30.06,24.97,44.87,3.62,6.25,8.64,11.33,16.35,12.92,8.23,1.7,15.66.17,20.65-6.58,6.5-8.8,12.45-18.08,17.91-27.57,6.3-10.94,11.92-22.28,17.61-33.56,4.26-8.45,4.1-8.53,15.08-7.43Z"></path><path class="cls-1" d="m38.95,79.4c-.77.17-1.09.3-1.42.31q-9.08.26-12.56-8.14c-3.89-9.36-7.66-18.77-11.8-28.01-.99-2.21-2.91-4.46-5-5.65C2.32,34.56-.68,29.85.13,23.17c.69-5.69,3.75-9.95,9.31-11.89,6.38-2.23,11.54-.37,16.12,4.6,1.66,1.8,4.65,3.11,7.14,3.29,15.76,1.14,27.7,7.43,33.59,22.97,2.06,5.43,4.73,10.62,7.11,15.92,1.62,3.61-.17,5.87-3.27,7.11-3.21,1.29-4.9-.8-6.06-3.51-2.35-5.5-4.67-11-7.13-16.45-4.93-10.93-13.79-15.75-25.43-16.05-5.31-.14-10.24,6.71-8.26,11.67,5.09,12.77,10.36,25.47,15.7,38.57Z"></path><path class="cls-1" d="m169.57,64.85c4.3-10.91,8.45-21.38,12.56-31.87,2.99-7.62-1.29-13.45-9.38-12.96-10.13.61-17.25,5.31-20.84,15-.92,2.48-1.64,5.26-3.31,7.16-1.19,1.35-4.22,2.42-5.67,1.82-1.52-.63-3.19-3.55-3-5.25,1.69-14.71,15.14-27.27,30.37-28.61,4.6-.4,8.46-1.08,11.4-5.58,3.01-4.6,9.88-5.6,15.44-3.54,5.24,1.95,8.76,6.81,8.82,12.69.06,5.91-2.18,10.47-7.68,13.48-2.19,1.2-4.31,3.47-5.31,5.76-3.54,8.04-6.53,16.33-9.82,24.48-3.45,8.55-3.49,8.53-13.58,7.41Z"></path><style>@media (prefers-color-scheme: light) { :root { filter: contrast(1) brightness(0.1); } }
@media (prefers-color-scheme: dark) { :root { filter: invert(100%); } }
</style></svg>